<?xml version="1.0" encoding="utf-8"?>
<!-- Generator: Adobe Illustrator 23.0.1, SVG Export Plug-In . SVG Version: 6.00 Build 0)  -->
<svg version="1.1" id="Layer_1" xmlns="http://www.w3.org/2000/svg" xmlns:xlink="http://www.w3.org/1999/xlink" x="0px" y="0px"
	 viewBox="0 0 229 144.5" style="enable-background:new 0 0 229 144.5;" xml:space="preserve">
<style type="text/css">
	.st0{fill:#FFFFFF;}
</style>
<g>
	<path class="st0" d="M121.7,99.8c-1.2-0.1-1.9-0.8-1.5-2.1l7.2-33.6c1.4-7.1-0.5-11.4-7-12.4h-5.7c-5.3,0.2-9.2,4.7-10.7,9
		c-2.2,8.7-4.3,16.1-6.3,21.3C92,97.9,78.8,99.6,74.6,99.6l-33.6,0h-0.2c-15.3,0-27.2-11.9-27.8-25.5c-0.4-8.7,3.9-19.1,15.6-26.2
		C15.9,28,31.7,8.6,56.7,8.6c0.3,0,0.6,0,0.9,0h26.1l0.2,0c0.9,0,1.2,0.5,1.1,1.3l-2.3,13.3c-0.2,1.1-1,1.5-2,1.6L52.8,25
		c-5.2,0.3-9.2,2.7-9.2,8.8c0.8,5.8,4,7.3,8,8.2l21.5,0c1.4,0.1,1.8,0.9,1.7,2l-2.1,12.8c-0.2,1.1-0.9,1.7-2.1,1.7l-0.2,0l-24.4,0v0
		c-8.4,0.1-12.3,7-12.6,12.4s2.9,10.9,8.7,11.4l27.9,0c5.4,0,9.8-2.4,10.9-5.9l0,0l6.5-21.6c4.1-13.4,18.2-20.4,31.5-20.4
		c15.3,0,29.6,9.2,26.9,28.3l-7.1,35.2c-0.2,1.5-1.1,2-2.4,2L121.7,99.8 M183.5,101.2c-0.2,0-0.3,0-0.5,0c-7.3-0.2-10-6.9-7.9-13.3
		l1.9-10.2c0-1.4-0.7-2.1-2-2.3h-10.2c-4.7-0.1-8.6-4.5-8.5-9c0.1-5.3,3.8-9.6,10.3-9.6c0.3,0,0.6,0,0.9,0h11c1.6-0.4,2.7-1,3.2-2.8
		l2.4-12.2c1.2-5.7,3.7-10,10.3-10c0.2,0,0.3,0,0.5,0c5.9,0.2,10,5.4,8.5,11.1l-2.4,11.9c-0.2,1.6,1.2,2,2.2,2.1h10.4
		c7.1,0.2,9.6,5.3,9.3,9.8c-0.2,4.5-3.7,8.8-10.6,8.8c-0.5,0-0.9,0-1.4-0.1h-10.6c-1.7,0-3.3,1.2-4,2.6L194,89
		C192.9,94.1,192.1,101.2,183.5,101.2"/>
	<path class="st0" d="M70.3,121.4v4.4H74c1.2,0,2.7-0.4,2.7-2.2c0-1.9-1.3-2.2-2.8-2.2L70.3,121.4 M81.1,135.4H77
		c-0.5-0.7-0.7-1.5-0.7-3.7c0-1.4-0.2-2.7-2.8-2.7h-3.2v6.4h-4.1V118h8.9c3.8,0,5.7,1.9,5.7,5c0,2.5-1.4,3.8-2.9,4.3v0.1
		c2.3,0.6,2.5,2.6,2.5,4.2C80.5,133.8,80.5,134.5,81.1,135.4 M206.2,121.4v4.6h3.2c1.7,0,2.9-0.5,2.9-2.4c0-1.8-1.1-2.2-2.9-2.2
		L206.2,121.4 M206.2,135.4h-4.1V118h8.1c5,0,6.4,2.6,6.4,5.6c0,5.4-4.5,5.8-6.5,5.8h-3.9L206.2,135.4 M28,135.9
		c-5.9,0-8.6-3.4-8.6-9.2c0-8.6,6.6-9.1,9.1-9.1c5.1,0,7.2,3.4,7.6,6.1H32c0-1.2-0.9-2.8-3.4-2.8c-4.3,0-4.7,4-4.7,5.9
		c0,4.1,2.1,5.7,4.6,5.7c2.3,0,3.8-1.4,4-3.4H29V126h7.4v9.4h-3.1v-1.9C32,135.9,29.5,135.9,28,135.9 M118.9,120.9
		c-3.6,0-4.4,3.1-4.4,5.8c0,2.7,0.8,5.8,4.4,5.8c3.6,0,4.3-3.1,4.3-5.8C123.2,124,122.5,120.9,118.9,120.9 M118.9,135.9
		c-6.6,0-8.8-4.8-8.8-9.1c0-4.4,2.2-9.2,8.8-9.2c6.6,0,8.8,4.8,8.8,9.2C127.7,131.1,125.5,135.9,118.9,135.9 M164.8,135.9
		c-7,0-7.5-4.7-7.5-7.1V118h4.1v10.1c0,2.5,0.6,4.3,3.4,4.3c2.8,0,3.4-1.8,3.4-4.3V118h4.1v10.8
		C172.3,131.1,171.8,135.9,164.8,135.9"/>
</g>
</svg>
